/* XPM */
static const char * const I_NormalFile_16[]={
"16 16 3 1",
"# c #000000",
"a c #c0c0c0",
". c #ffffff",
".###########....",
".#.........a#...",
".#.........a.#..",
".#.........####.",
".#............#.",
".#............#.",
".#............#.",
".#............#.",
".#............#.",
".#............#.",
".#............#.",
".#............#.",
".#............#.",
".#............#.",
".#aaaaaaaaaaaa#.",
".##############."};
